<?xml version="1.0" encoding="UTF-8" standalone="no"?>
<svg
   xmlns:dc="http://purl.org/dc/elements/1.1/"
   xmlns:cc="http://creativecommons.org/ns#"
   xmlns:rdf="http://www.w3.org/1999/02/22-rdf-syntax-ns#"
   xmlns:svg="http://www.w3.org/2000/svg"
   xmlns="http://www.w3.org/2000/svg"
   xmlns:sodipodi="http://sodipodi.sourceforge.net/DTD/sodipodi-0.dtd"
   xmlns:inkscape="http://www.inkscape.org/namespaces/inkscape"
   inkscape:version="1.0 (4035a4fb49, 2020-05-01)"
   sodipodi:docname="WashU Logo.svg"
   id="svg38"
   style="clip-rule:evenodd;fill-rule:evenodd;stroke-linejoin:round;stroke-miterlimit:2"
   xml:space="preserve"
   version="1.1"
   viewBox="0 0 119.91006 100"
   height="100"
   width="119.91006"><metadata
   id="metadata44"><rdf:RDF><cc:Work
       rdf:about=""><dc:format>image/svg+xml</dc:format><dc:type
         rdf:resource="http://purl.org/dc/dcmitype/StillImage" /></cc:Work></rdf:RDF></metadata><defs
   id="defs42" /><sodipodi:namedview
   inkscape:current-layer="svg38"
   inkscape:window-maximized="1"
   inkscape:window-y="-8"
   inkscape:window-x="-8"
   inkscape:cy="64.923682"
   inkscape:cx="92.958513"
   inkscape:zoom="5.3997245"
   showgrid="false"
   id="namedview40"
   inkscape:window-height="1002"
   inkscape:window-width="1920"
   inkscape:pageshadow="2"
   inkscape:pageopacity="0"
   guidetolerance="10"
   gridtolerance="10"
   objecttolerance="10"
   borderopacity="1"
   bordercolor="#666666"
   pagecolor="#ffffff" />
    <g
   id="g36"
   transform="matrix(0.47582794,0,0,0.47582794,0,-0.39969547)">
        <path
   id="path2"
   style="fill:#bc0940;fill-rule:nonzero"
   d="m 141.61,147.296 h -31.22 v -7.487 c -1.371,0.016 -2.744,0.035 -4.124,0.058 v 11.553 h 39.468 v -11.375 c -1.365,-0.034 -2.741,-0.064 -4.124,-0.094 z" />
        <path
   id="path4"
   style="fill:#bc0940;fill-rule:nonzero"
   d="m 247.314,54.007 -4.364,0.596 c -8.82,1.209 -13.139,1.738 -22.01,2.697 l -4.301,0.46 c -2.511,0.261 -4.648,0.477 -6.604,0.667 v -5.155 l 7.444,-0.814 3.675,-0.403 V 0.84 l -4.465,0.372 -2.606,0.216 -0.141,0.012 c -4.448,0.36 -44.405,3.541 -77.368,4.169 l -2.359,0.045 -4.046,0.077 V 56.77 l 4.212,-0.09 7.229,-0.153 v 9.62 c 1.37,-0.015 2.745,-0.034 4.124,-0.056 V 52.314 l -11.441,0.243 V 9.777 l 2.359,-0.045 c 35.094,-0.668 77.35,-4.161 77.773,-4.193 l 2.605,-0.217 v 43.036 l -11.119,1.217 v 13.382 c 3.359,-0.303 6.706,-0.633 11.165,-1.096 l 4.308,-0.46 c 8.991,-0.973 13.332,-1.507 22.125,-2.712 l 4.363,-0.597 -0.036,26.173 -3.344,0.255 -0.077,36.925 3.339,0.249 -0.046,26.251 -4.349,-0.593 c -0.948,-0.131 -1.834,-0.247 -2.688,-0.366 -0.363,-0.046 -0.748,-0.095 -1.137,-0.144 -0.179,-0.022 -0.362,-0.046 -0.547,-0.069 -0.253,-0.032 -0.512,-0.064 -0.776,-0.097 -0.189,-0.023 -0.374,-0.046 -0.568,-0.07 -0.404,-0.05 -0.82,-0.101 -1.245,-0.153 -0.206,-0.024 -0.421,-0.05 -0.631,-0.076 -0.284,-0.034 -0.571,-0.068 -0.864,-0.103 -0.236,-0.028 -0.473,-0.056 -0.717,-0.085 -0.377,-0.044 -0.763,-0.09 -1.156,-0.135 -0.258,-0.03 -0.52,-0.061 -0.785,-0.092 -0.388,-0.044 -0.782,-0.09 -1.184,-0.136 -0.234,-0.026 -0.471,-0.052 -0.709,-0.08 -0.4,-0.045 -0.807,-0.09 -1.219,-0.136 -0.191,-0.021 -0.378,-0.042 -0.572,-0.064 -0.592,-0.065 -1.199,-0.132 -1.816,-0.198 -0.186,-0.021 -0.378,-0.041 -0.566,-0.062 -0.501,-0.053 -1.009,-0.107 -1.525,-0.162 -0.179,-0.018 -0.357,-0.038 -0.539,-0.056 -0.698,-0.074 -1.408,-0.148 -2.135,-0.222 -0.023,-0.003 -0.048,-0.005 -0.073,-0.008 -0.716,-0.073 -1.448,-0.147 -2.191,-0.222 -0.126,-0.012 -0.253,-0.025 -0.381,-0.038 -1.601,-0.159 -3.258,-0.319 -4.976,-0.481 -0.004,0 -0.009,0 -0.014,-0.001 -2.676,-0.251 -5.49,-0.504 -8.434,-0.754 v 39.103 l -31.453,24.431 H 77.542 L 46.088,182.445 v -39.32 l -3.562,0.323 c -10.558,0.995 -15.657,1.556 -25.984,2.865 l -4.325,0.546 0.048,-25.764 2.975,-0.204 C 12.946,108.998 10.638,96.816 8.37,84.586 8.155,84.571 7.929,84.553 7.68,84.536 L 4.129,84.265 4.168,58.098 8.515,58.695 c 0.116,0.015 0.221,0.029 0.332,0.044 0.32,0.042 0.668,0.087 1.019,0.132 0.215,0.027 0.437,0.056 0.665,0.085 0.139,0.018 0.286,0.036 0.43,0.054 0.889,0.113 1.858,0.234 2.909,0.362 0.113,0.013 0.226,0.027 0.341,0.041 1.049,0.127 2.179,0.261 3.379,0.401 0.218,0.026 0.436,0.051 0.659,0.076 0.34,0.039 0.685,0.079 1.038,0.119 0.291,0.034 0.59,0.067 0.889,0.101 0.467,0.053 0.944,0.105 1.429,0.159 0.419,0.047 0.842,0.094 1.275,0.141 0.276,0.03 0.555,0.06 0.836,0.091 0.493,0.053 0.995,0.107 1.505,0.161 0.207,0.022 0.409,0.044 0.62,0.066 0.715,0.076 1.447,0.153 2.194,0.229 0.191,0.02 0.387,0.04 0.582,0.06 0.637,0.065 1.287,0.131 1.947,0.198 0.179,0.017 0.354,0.035 0.534,0.052 0.847,0.085 1.708,0.169 2.59,0.255 0.038,0.003 0.078,0.007 0.117,0.011 0.84,0.081 1.699,0.163 2.571,0.245 0.159,0.015 0.318,0.029 0.477,0.044 1.826,0.171 3.719,0.342 5.674,0.513 0.224,0.019 0.448,0.039 0.673,0.058 0.813,0.071 1.637,0.141 2.472,0.211 0.139,0.012 0.277,0.024 0.416,0.035 V 49.575 L 34.972,48.358 V 5.322 l 2.604,0.217 c 0.423,0.032 42.677,3.525 77.771,4.193 l 2.359,0.045 v 42.78 l -11.44,-0.243 v 13.584 c 1.365,0.033 2.741,0.065 4.124,0.094 v -9.465 l 7.228,0.153 4.212,0.09 V 5.731 L 117.784,5.654 115.425,5.609 C 82.461,4.981 42.505,1.8 38.058,1.44 L 37.889,1.426 35.314,1.212 30.848,0.84 v 51.215 l 3.675,0.403 7.441,0.814 v 4.873 C 26.389,56.77 15.022,55.388 9.382,54.65 L 9.279,54.635 9.03,54.603 4.729,54.012 0.051,53.371 0.044,58.092 0.005,84.259 0,88.087 3.816,88.378 4.895,88.46 c 1.755,9.428 3.57,19.028 5.414,28.635 l -2.161,0.148 -0.007,3.844 -0.048,25.764 -0.009,4.686 4.65,-0.587 4.325,-0.546 c 9.943,-1.26 15.016,-1.824 24.905,-2.76 v 36.82 l 1.594,1.238 31.453,24.431 1.117,0.867 h 99.743 l 1.116,-0.867 31.453,-24.431 1.595,-1.238 v -36.622 c 13.322,1.193 23.602,2.399 30.11,3.235 l 1.28,0.174 1.371,0.186 4.355,0.594 4.673,0.637 0.008,-4.717 0.046,-26.25 0.007,-3.834 -3.338,-0.249 0.061,-29.276 3.347,-0.254 0.005,-3.817 0.036,-26.173 0.007,-4.733 z" />
        <path
   id="path6"
   style="fill:#bc0940;fill-rule:nonzero"
   d="M 160.064,165.998 H 91.936 v -0.036 h -0.002 v -25.744 c -0.843,0.027 -1.685,0.055 -2.531,0.085 -3.193,0.131 -6.457,0.285 -10.732,0.508 l -2.465,0.13 -2.512,0.145 c -4.868,0.279 -8.582,0.511 -12.205,0.77 v 32.214 l 0.002,0.045 0.901,0.67 c 0.02,-0.008 0.034,-0.017 0.057,-0.029 l 21.149,15.866 H 168.4 l 21.152,-15.866 c 0.022,0.012 0.036,0.021 0.056,0.029 l 0.902,-0.67 0.002,-0.045 v -31.914 c -9.31,-0.646 -19.517,-1.223 -30.446,-1.652 v 25.458 h -0.002 z" />
        <path
   id="path8"
   style="fill:#bc0940;fill-rule:nonzero"
   d="m 61.494,45.907 h -0.005 v 17.901 c 9.311,0.637 19.523,1.206 30.445,1.632 v -8.428 h 0.002 V 36.748 l 2.152,0.056 7.558,0.19 V 24.919 C 84.834,24.379 59.063,23.002 51.41,22.583 v 11.705 l 8.171,0.765 1.913,0.178 z" />
        <path
   id="path10"
   style="fill:#bc0940;fill-rule:nonzero"
   d="m 190.507,35.231 1.913,-0.178 8.173,-0.765 V 22.583 c -7.655,0.419 -33.427,1.796 -50.241,2.336 v 12.075 l 7.558,-0.19 2.154,-0.056 v 20.264 h 0.002 v 8.743 c 5.417,-0.17 10.896,-0.391 16.429,-0.67 1.053,-0.063 2.146,-0.125 3.316,-0.194 l 1.825,-0.109 0.022,0.023 c 2.94,-0.165 5.891,-0.349 8.854,-0.548 v -18.35 h -0.005 z" />
        <path
   id="path12"
   style="fill:#ffffff;fill-rule:nonzero"
   d="m 244.004,80.707 c -1.333,0.101 -2.002,0.148 -3.341,0.246 -0.029,14.688 -0.058,29.372 -0.09,44.057 1.337,0.098 2.006,0.148 3.339,0.246 -0.014,7.318 -0.02,10.978 -0.034,18.294 -8.769,-1.199 -13.219,-1.748 -22.236,-2.728 0.013,-6.823 0.017,-10.236 0.032,-17.059 1.372,0.08 2.056,0.122 3.423,0.205 0.011,-5.093 0.015,-7.642 0.026,-12.737 -4.447,-0.108 -6.687,-0.158 -11.194,-0.253 -0.01,4.935 -0.014,7.408 -0.022,12.343 1.382,0.078 2.072,0.113 3.448,0.19 -0.018,6.743 -0.027,10.114 -0.044,16.852 -4.537,-0.469 -7.954,-0.806 -11.4,-1.115 -0.795,-0.071 -1.593,-0.14 -2.405,-0.21 -0.781,-0.066 -1.581,-0.134 -2.404,-0.201 -2.021,-0.165 -4.199,-0.336 -6.731,-0.528 0.014,-6.369 0.02,-9.554 0.032,-15.923 1.416,0.057 2.12,0.09 3.533,0.148 0.031,-13.028 0.063,-26.062 0.096,-39.091 -1.412,0.063 -2.119,0.092 -3.534,0.151 0.011,-6.341 0.016,-9.514 0.027,-15.853 2.468,-0.189 4.6,-0.357 6.577,-0.519 0.823,-0.067 1.624,-0.133 2.404,-0.2 0.813,-0.069 1.61,-0.14 2.405,-0.21 3.501,-0.313 6.953,-0.654 11.56,-1.131 -0.014,6.713 -0.02,10.07 -0.033,16.78 -1.372,0.08 -2.06,0.116 -3.436,0.193 -0.013,4.051 -0.018,6.072 -0.027,10.12 4.505,-0.125 6.744,-0.19 11.192,-0.329 0.013,-4.176 0.019,-6.269 0.03,-10.444 -1.37,0.083 -2.055,0.125 -3.429,0.208 0.011,-6.793 0.019,-10.192 0.031,-16.988 9.015,-0.979 13.465,-1.528 22.23,-2.727 -0.011,7.286 -0.014,10.928 -0.025,18.213 z M 44.358,101.775 c -2.145,8.482 -3.212,12.776 -5.343,21.496 1.273,-0.069 1.91,-0.104 3.185,-0.169 -0.013,6.609 -0.019,9.915 -0.033,16.524 -10.601,0.997 -15.83,1.576 -26.105,2.876 0.013,-7.129 0.02,-10.693 0.033,-17.821 1.49,-0.105 2.238,-0.154 3.736,-0.256 C 17.025,109.951 14.285,95.468 11.599,80.971 10.146,80.867 9.419,80.817 7.971,80.707 7.982,73.423 7.988,69.78 7.997,62.5 c 7.939,1.086 11.962,1.585 20.107,2.493 -0.015,6.835 -0.025,10.25 -0.04,17.085 -1.147,-0.071 -1.719,-0.104 -2.86,-0.178 2.017,10.26 3.029,15.305 5.058,25.261 2.047,-10.003 3.072,-14.93 5.131,-24.653 -1.046,-0.059 -1.567,-0.088 -2.611,-0.148 0.013,-6.743 0.019,-10.114 0.031,-16.857 5.35,0.566 9.162,0.947 13.275,1.311 0.787,0.069 1.583,0.139 2.405,0.208 0.775,0.066 1.574,0.132 2.403,0.2 1.571,0.128 3.254,0.262 5.131,0.409 -0.011,6.36 -0.017,9.539 -0.027,15.901 -1.029,-0.044 -1.542,-0.067 -2.567,-0.112 2.059,9.494 3.089,14.179 5.157,23.459 0.285,-1.245 0.549,-2.401 0.801,-3.5 0.246,-1.075 0.48,-2.092 0.704,-3.068 0.489,-2.122 0.937,-4.066 1.394,-6.033 0.724,-3.122 1.472,-6.315 2.439,-10.428 -0.998,-0.036 -1.595,-0.06 -2.439,-0.094 -0.196,-0.008 -0.401,-0.016 -0.631,-0.025 0.012,-6.298 0.018,-9.44 0.029,-15.735 0.207,0.014 0.4,0.028 0.602,0.043 8.054,0.58 12.339,0.834 20.75,1.236 -0.015,6.064 -0.022,9.094 -0.036,15.162 -1.549,-0.041 -2.322,-0.064 -3.869,-0.109 -3.029,12.523 -6.013,25.056 -8.936,37.607 1.64,-0.053 2.463,-0.083 4.108,-0.133 -0.014,6.179 -0.02,9.271 -0.035,15.45 -4.758,0.275 -8.438,0.504 -11.982,0.755 -0.325,0.022 -0.649,0.046 -0.972,0.069 -0.375,0.028 -0.751,0.055 -1.126,0.083 -2.669,0.199 -5.365,0.417 -8.495,0.686 -0.77,0.065 -1.576,0.136 -2.403,0.208 -0.427,0.037 -0.85,0.074 -1.294,0.113 0.01,-6.526 0.015,-9.788 0.028,-16.313 0.502,-0.025 0.887,-0.044 1.266,-0.063 0.447,-0.021 0.884,-0.043 1.48,-0.071 -0.55,-2.018 -1.032,-3.79 -1.48,-5.443 -0.852,-3.141 -1.579,-5.852 -2.405,-8.957 -0.519,-1.955 -1.077,-4.063 -1.73,-6.544 z M 59.581,35.053 51.41,34.288 V 22.583 c 7.653,0.419 33.424,1.796 50.236,2.336 v 12.075 l -7.558,-0.19 -2.152,-0.056 V 57.012 H 91.934 V 65.44 C 81.012,65.014 70.8,64.445 61.489,63.808 V 45.907 h 0.005 V 35.231 Z m -19.799,8.99 v -33.5 c 9.523,0.75 43.432,3.291 73.115,3.953 v 33.143 l -11.442,-0.243 v 18.37 C 98.95,65.692 96.477,65.609 94.039,65.519 V 38.97 l 9.708,0.25 V 22.811 C 83.99,22.235 49.308,20.295 49.308,20.295 V 36.27 l 10.083,0.944 V 63.663 C 56.465,63.457 53.63,63.245 50.896,63.029 V 45.257 Z m 70.608,26.084 c 5.061,0.088 10.123,0.154 15.189,0.187 -0.009,3.039 -0.016,5.292 -0.022,7.571 -0.004,1.318 -0.008,2.644 -0.012,4.135 -0.003,0.922 -0.006,1.905 -0.009,2.99 -1.251,0 -1.872,0 -3.119,-0.003 4.509,12 9.035,23.991 13.511,36.002 1.487,0.006 2.228,0.012 3.71,0.021 -0.001,0.211 -0.001,0.411 -0.002,0.615 -0.005,1.536 -0.009,2.88 -0.013,4.133 -0.01,3.253 -0.018,5.944 -0.03,10.07 -9.465,-0.14 -14.294,-0.146 -23.781,-0.041 0.012,-4.168 0.019,-6.873 0.028,-10.174 0.003,-1.252 0.007,-2.597 0.011,-4.135 0,-0.164 0.001,-0.321 0.001,-0.489 0.798,-0.006 1.199,-0.009 1.998,-0.015 -0.353,-1.196 -0.531,-1.792 -0.885,-2.988 -4.393,0.02 -7.307,0.04 -10.699,0.076 -0.769,0.008 -1.564,0.017 -2.406,0.028 -0.756,0.008 -1.555,0.018 -2.405,0.029 -0.256,0.003 -0.51,0.007 -0.776,0.01 -0.385,1.21 -0.578,1.815 -0.964,3.036 0.702,-0.012 1.108,-0.02 1.74,-0.03 0.081,-0.001 0.152,-0.002 0.243,-0.003 -0.019,5.968 -0.026,8.951 -0.046,14.916 -0.067,0.002 -0.13,0.004 -0.197,0.004 -2.811,0.075 -5.201,0.144 -7.416,0.218 -0.717,0.024 -1.414,0.048 -2.105,0.073 -4.176,0.152 -8.023,0.332 -13.462,0.616 0.017,-6.131 0.026,-9.201 0.04,-15.328 1.439,-0.042 2.157,-0.06 3.602,-0.099 3.219,-9.059 6.505,-18.095 9.82,-27.12 0.701,-1.909 1.4,-3.818 2.105,-5.725 0.489,-1.324 0.968,-2.651 1.46,-3.973 -0.59,-0.012 -1.018,-0.02 -1.46,-0.029 -0.349,-0.007 -0.705,-0.015 -1.167,-0.024 0.012,-5.983 0.02,-8.974 0.032,-14.961 0.379,0.012 0.757,0.017 1.135,0.028 2.472,0.072 4.944,0.119 7.416,0.177 0.802,0.02 1.604,0.04 2.405,0.059 0.802,0.018 1.604,0.041 2.406,0.058 1.374,0.027 2.75,0.061 4.124,0.085 z m 33.289,10.527 c 0.753,-0.815 1.42,-1.538 2.055,-2.229 0.857,-0.93 1.644,-1.789 2.406,-2.622 0.788,-0.863 1.571,-1.725 2.404,-2.646 0.882,-0.975 1.823,-2.021 2.927,-3.25 1.611,-0.048 3.09,-0.094 4.493,-0.14 0.722,-0.024 1.422,-0.048 2.102,-0.071 6.822,-0.237 11.85,-0.489 19.971,-0.973 3.801,4.158 5.693,6.262 9.457,10.544 -0.011,5.503 -0.017,8.254 -0.029,13.759 -6.499,0.131 -9.776,0.188 -16.374,0.285 0.028,-3.585 0.041,-5.381 0.068,-8.969 -5.009,0.143 -7.528,0.208 -12.592,0.312 -0.046,4.422 -0.068,6.63 -0.115,11.046 7.873,-0.062 11.78,-0.104 19.522,-0.204 3.799,4.336 5.69,6.532 9.457,11.019 -0.021,8.113 -0.032,12.171 -0.054,20.284 -3.781,4.28 -5.682,6.378 -9.498,10.533 -8.058,-0.477 -13.071,-0.728 -19.813,-0.963 -0.68,-0.024 -1.382,-0.047 -2.102,-0.071 -1.452,-0.047 -2.984,-0.095 -4.66,-0.144 -1.034,-1.157 -1.927,-2.153 -2.76,-3.078 -0.839,-0.932 -1.619,-1.795 -2.404,-2.658 -0.765,-0.841 -1.551,-1.701 -2.406,-2.632 -0.67,-0.731 -1.377,-1.5 -2.178,-2.37 0.005,-1.385 0.008,-2.577 0.011,-3.686 0.01,-2.939 0.017,-5.279 0.028,-8.951 0.754,0.004 1.461,0.009 2.139,0.013 0.845,0.005 1.645,0.01 2.406,0.016 0.834,0.006 1.626,0.011 2.404,0.017 2.395,0.019 4.639,0.04 7.42,0.071 0.665,0.007 1.366,0.014 2.102,0.023 0.103,0.001 0.199,0.002 0.303,0.003 -0.042,3.362 -0.064,5.045 -0.105,8.404 5.094,0.105 7.629,0.167 12.67,0.31 0.062,-4.327 0.094,-6.491 0.157,-10.824 -5.305,-0.063 -8.828,-0.101 -13.025,-0.135 -0.678,-0.006 -1.378,-0.011 -2.102,-0.017 -1.403,-0.01 -2.905,-0.02 -4.595,-0.032 -1.061,-1.164 -1.974,-2.161 -2.825,-3.09 -0.836,-0.912 -1.618,-1.76 -2.404,-2.611 -0.763,-0.826 -1.55,-1.674 -2.406,-2.594 -0.65,-0.7 -1.334,-1.433 -2.108,-2.264 0.019,-7.322 0.031,-11.194 0.049,-18.122 0.002,-0.42 0.003,-0.849 0.004,-1.293 z m 48.93,-16.619 V 37.214 L 202.692,36.27 V 20.295 c 0,0 -34.681,1.94 -54.44,2.516 V 39.22 l 9.712,-0.25 v 26.85 c -2.488,0.072 -4.962,0.134 -7.42,0.186 v -18.61 l -11.44,0.243 V 14.496 c 29.681,-0.662 63.591,-3.203 73.115,-3.953 v 33.5 l -11.117,1.214 v 18.114 c -2.052,0.169 -4.269,0.343 -6.868,0.541 z M 160.064,57.012 V 36.748 l -2.154,0.056 -7.558,0.19 V 24.919 c 16.814,-0.54 42.586,-1.917 50.241,-2.336 v 11.705 l -8.173,0.765 -1.913,0.178 v 10.676 h 0.005 v 18.35 c -2.963,0.199 -5.914,0.383 -8.854,0.548 l -0.022,-0.023 -1.825,0.109 c -1.17,0.069 -2.263,0.131 -3.316,0.194 -5.533,0.279 -11.012,0.5 -16.429,0.67 v -8.743 z m -68.128,108.95 v 0.036 h 1.054 c 0.657,0.018 1.147,0 1.147,0 h 65.927 v -0.036 h 0.002 v -25.458 c 10.929,0.429 21.136,1.006 30.446,1.652 v 31.914 l -0.002,0.045 -0.902,0.67 c -0.02,-0.008 -0.034,-0.017 -0.056,-0.029 L 168.4,190.622 H 83.598 L 62.449,174.756 c -0.023,0.012 -0.037,0.021 -0.057,0.029 l -0.901,-0.67 -0.002,-0.045 v -32.214 c 3.623,-0.259 7.337,-0.491 12.205,-0.77 l 2.512,-0.145 2.465,-0.13 c 4.275,-0.223 7.539,-0.377 10.732,-0.508 0.846,-0.03 1.688,-0.058 2.531,-0.085 v 25.744 z m 58.608,-9.728 v -16.057 c 2.506,0.074 4.981,0.156 7.42,0.247 v 23.404 H 94.039 v -23.675 c 2.486,-0.076 4.959,-0.14 7.416,-0.193 v 16.274 z M 110.39,139.809 c 10.787,-0.129 21.231,-0.065 31.22,0.142 1.383,0.03 2.759,0.06 4.124,0.094 v 11.375 h -39.468 v -11.553 c 1.38,-0.023 2.753,-0.042 4.124,-0.058 z m 90.712,40.28 -28.291,21.974 H 79.19 L 50.896,180.089 v -37.391 c 3.159,-0.271 5.86,-0.492 8.495,-0.689 v 3.918 h -0.002 v 29.292 l 23.528,17.569 h 86.167 l 23.525,-17.569 v -32.916 c 2.925,0.209 5.759,0.424 8.493,0.642 z m 46.734,-95.824 0.036,-26.173 -4.363,0.597 c -8.793,1.205 -13.134,1.739 -22.125,2.712 l -4.308,0.46 c -4.458,0.463 -7.808,0.795 -11.165,1.097 V 49.575 L 217.03,48.358 V 5.322 l -2.605,0.217 c -0.423,0.032 -42.679,3.525 -77.773,4.193 l -2.359,0.045 v 42.78 l 11.441,-0.243 v 13.777 c -1.379,0.022 -2.754,0.041 -4.124,0.056 -10.784,0.121 -21.227,0.053 -31.22,-0.155 -1.383,-0.029 -2.759,-0.061 -4.124,-0.094 V 52.314 l 11.44,0.243 V 9.777 L 115.347,9.732 C 80.253,9.064 37.999,5.571 37.576,5.539 L 34.972,5.322 v 43.036 l 11.116,1.217 v 13.064 c -0.14,-0.011 -0.275,-0.023 -0.416,-0.035 -0.835,-0.07 -1.659,-0.14 -2.472,-0.211 -0.225,-0.019 -0.449,-0.039 -0.673,-0.058 -1.956,-0.171 -3.848,-0.342 -5.674,-0.513 -0.16,-0.015 -0.318,-0.029 -0.477,-0.044 -0.872,-0.082 -1.73,-0.164 -2.571,-0.245 -0.039,-0.004 -0.079,-0.008 -0.117,-0.011 -0.881,-0.086 -1.743,-0.17 -2.59,-0.255 -0.18,-0.017 -0.355,-0.035 -0.534,-0.052 -0.66,-0.067 -1.31,-0.133 -1.947,-0.198 -0.195,-0.02 -0.391,-0.04 -0.582,-0.06 -0.746,-0.076 -1.48,-0.153 -2.194,-0.229 -0.211,-0.022 -0.413,-0.044 -0.62,-0.066 -0.51,-0.054 -1.012,-0.108 -1.505,-0.161 C 23.435,60.47 23.157,60.44 22.88,60.41 22.448,60.363 22.024,60.316 21.605,60.269 21.119,60.215 20.644,60.163 20.176,60.11 19.877,60.076 19.578,60.043 19.287,60.009 18.934,59.969 18.589,59.929 18.249,59.89 18.026,59.865 17.808,59.84 17.59,59.814 16.39,59.674 15.26,59.54 14.211,59.413 14.096,59.399 13.983,59.385 13.87,59.372 12.819,59.244 11.85,59.123 10.961,59.01 10.816,58.992 10.671,58.974 10.531,58.956 10.303,58.927 10.081,58.898 9.866,58.871 9.512,58.826 9.169,58.781 8.847,58.739 8.736,58.724 8.631,58.71 8.515,58.695 L 4.168,58.098 4.129,84.265 7.68,84.536 c 0.249,0.017 0.475,0.035 0.69,0.05 2.268,12.23 4.576,24.412 6.87,36.305 l -2.975,0.204 -0.048,25.764 4.325,-0.546 c 10.327,-1.309 15.426,-1.87 25.984,-2.865 l 3.562,-0.325 v 39.322 l 31.454,24.431 h 96.916 l 31.453,-24.431 v -39.103 c 2.944,0.25 5.758,0.503 8.434,0.754 0.005,0.001 0.01,0.001 0.014,0.001 1.717,0.162 3.376,0.322 4.976,0.481 0.128,0.013 0.255,0.026 0.381,0.038 0.743,0.075 1.475,0.149 2.191,0.222 0.025,0.003 0.05,0.005 0.073,0.008 0.727,0.074 1.437,0.148 2.135,0.222 0.182,0.018 0.36,0.038 0.539,0.056 0.516,0.055 1.025,0.109 1.525,0.162 0.189,0.021 0.38,0.041 0.566,0.062 0.617,0.066 1.224,0.133 1.816,0.198 0.194,0.022 0.38,0.043 0.572,0.064 0.412,0.046 0.819,0.091 1.219,0.136 0.239,0.028 0.475,0.054 0.709,0.08 0.402,0.046 0.795,0.091 1.184,0.136 0.266,0.031 0.527,0.062 0.785,0.092 0.393,0.045 0.779,0.091 1.156,0.135 0.244,0.029 0.481,0.057 0.717,0.085 0.293,0.035 0.58,0.069 0.864,0.103 0.212,0.026 0.424,0.052 0.631,0.076 0.426,0.052 0.841,0.103 1.245,0.153 0.194,0.024 0.379,0.047 0.568,0.07 0.264,0.033 0.523,0.065 0.776,0.097 0.185,0.023 0.368,0.047 0.547,0.069 0.391,0.05 0.773,0.098 1.137,0.144 0.854,0.119 1.74,0.235 2.688,0.366 l 4.349,0.593 0.046,-26.251 -3.339,-0.249 0.077,-36.925 z" />
        <path
   id="path14"
   style="fill:#ffffff;fill-rule:nonzero"
   d="m 112.721,105.515 c -1.561,-4.161 -2.341,-6.245 -3.898,-10.42 -1.046,2.766 -1.747,4.623 -2.557,6.78 -0.41,1.088 -0.844,2.247 -1.37,3.649 0.495,-0.001 0.941,-0.002 1.37,-0.003 2.277,-0.004 3.813,-0.004 6.455,-0.006 z" />
        <path
   id="path16"
   style="fill:#007360;fill-rule:nonzero"
   d="m 50.896,63.029 c 2.734,0.216 5.569,0.428 8.495,0.634 V 37.214 L 49.308,36.27 V 20.295 c 0,0 34.682,1.94 54.439,2.516 V 39.22 l -9.708,-0.25 v 26.549 c 2.438,0.09 4.911,0.173 7.416,0.247 v -18.37 l 11.442,0.243 V 14.496 C 83.214,13.834 49.305,11.293 39.782,10.543 v 33.5 l 11.114,1.214 z" />
        <path
   id="path18"
   style="fill:#007360;fill-rule:nonzero"
   d="m 192.609,142.303 v 32.916 l -23.525,17.569 H 82.917 L 59.389,175.219 v -29.292 h 0.002 v -3.918 c -2.635,0.197 -5.336,0.418 -8.495,0.689 v 37.391 l 28.294,21.974 h 93.621 l 28.291,-21.974 v -37.144 c -2.734,-0.218 -5.568,-0.433 -8.493,-0.642 z" />
        <path
   id="path20"
   style="fill:#007360;fill-rule:nonzero"
   d="m 94.039,140.153 v 23.675 h 63.925 v -23.404 c -2.439,-0.091 -4.914,-0.173 -7.42,-0.247 v 16.057 H 101.455 V 139.96 c -2.457,0.053 -4.93,0.117 -7.416,0.193 z" />
        <path
   id="path22"
   style="fill:#007360;fill-rule:nonzero"
   d="m 150.544,66.006 c 2.458,-0.052 4.932,-0.114 7.42,-0.186 V 38.97 l -9.712,0.25 V 22.811 c 19.759,-0.576 54.44,-2.516 54.44,-2.516 V 36.27 l -10.083,0.944 v 26.821 l 1.625,-0.123 c 2.599,-0.198 4.816,-0.372 6.868,-0.541 V 45.257 l 11.117,-1.214 v -33.5 c -9.524,0.75 -43.434,3.291 -73.115,3.953 v 33.143 l 11.44,-0.243 z" />
        <path
   id="path24"
   style="fill:#007360;fill-rule:nonzero"
   d="m 106.266,105.521 c -0.429,0.001 -0.875,0.002 -1.37,0.003 0.526,-1.402 0.96,-2.561 1.37,-3.649 0.81,-2.157 1.511,-4.014 2.557,-6.78 1.557,4.175 2.337,6.259 3.898,10.42 -2.642,0.002 -4.178,0.002 -6.455,0.006 z M 125.545,82.02 c 0.004,-1.491 0.008,-2.817 0.012,-4.135 0.006,-2.279 0.013,-4.532 0.022,-7.571 -5.066,-0.033 -10.128,-0.099 -15.189,-0.187 -1.374,-0.024 -2.75,-0.058 -4.124,-0.085 -0.802,-0.017 -1.604,-0.04 -2.406,-0.058 -0.801,-0.019 -1.603,-0.039 -2.405,-0.059 -2.472,-0.058 -4.944,-0.105 -7.416,-0.177 -0.378,-0.011 -0.756,-0.016 -1.135,-0.028 -0.012,5.987 -0.02,8.978 -0.032,14.961 0.462,0.009 0.818,0.017 1.167,0.024 0.442,0.009 0.87,0.017 1.46,0.029 -0.492,1.322 -0.971,2.649 -1.46,3.973 -0.705,1.907 -1.404,3.816 -2.105,5.725 -3.315,9.025 -6.601,18.061 -9.82,27.12 -1.445,0.039 -2.163,0.057 -3.602,0.099 -0.014,6.127 -0.023,9.197 -0.04,15.328 5.439,-0.284 9.286,-0.464 13.462,-0.616 0.691,-0.025 1.388,-0.049 2.105,-0.073 2.215,-0.074 4.605,-0.143 7.416,-0.218 0.067,0 0.13,-0.002 0.197,-0.004 0.02,-5.965 0.027,-8.948 0.046,-14.916 -0.091,0.001 -0.162,0.002 -0.243,0.003 -0.632,0.01 -1.038,0.018 -1.74,0.03 0.386,-1.221 0.579,-1.826 0.964,-3.036 0.266,-0.003 0.52,-0.007 0.776,-0.01 0.85,-0.011 1.649,-0.021 2.405,-0.029 0.842,-0.011 1.637,-0.02 2.406,-0.028 3.392,-0.036 6.306,-0.056 10.699,-0.076 0.354,1.196 0.532,1.792 0.885,2.988 -0.799,0.006 -1.2,0.009 -1.998,0.015 0,0.168 -0.001,0.325 -0.001,0.489 -0.004,1.538 -0.008,2.883 -0.011,4.135 -0.009,3.301 -0.016,6.006 -0.028,10.174 9.487,-0.105 14.316,-0.099 23.781,0.041 0.012,-4.126 0.02,-6.817 0.03,-10.07 0.004,-1.253 0.008,-2.597 0.013,-4.133 0.001,-0.204 0.001,-0.404 0.002,-0.615 -1.482,-0.009 -2.223,-0.015 -3.71,-0.021 -4.476,-12.011 -9.002,-24.002 -13.511,-36.002 1.247,0.003 1.868,0.003 3.119,0.003 0.003,-1.085 0.006,-2.068 0.009,-2.99 z" />
        <path
   id="path26"
   style="fill:#007360;fill-rule:nonzero"
   d="m 189.465,93.026 c 0.012,-5.505 0.018,-8.256 0.029,-13.759 -3.764,-4.282 -5.656,-6.386 -9.457,-10.544 -8.121,0.484 -13.149,0.736 -19.971,0.973 -0.68,0.023 -1.38,0.047 -2.102,0.071 -1.403,0.046 -2.882,0.092 -4.493,0.14 -1.104,1.229 -2.045,2.275 -2.927,3.25 -0.833,0.921 -1.616,1.783 -2.404,2.646 -0.762,0.833 -1.549,1.692 -2.406,2.622 -0.635,0.691 -1.302,1.414 -2.055,2.229 -0.001,0.444 -0.002,0.873 -0.004,1.293 -0.018,6.928 -0.03,10.8 -0.049,18.122 0.774,0.831 1.458,1.564 2.108,2.264 0.856,0.92 1.643,1.768 2.406,2.594 0.786,0.851 1.568,1.699 2.404,2.611 0.851,0.929 1.764,1.926 2.825,3.09 1.69,0.012 3.192,0.022 4.595,0.032 0.724,0.006 1.424,0.011 2.102,0.017 4.197,0.034 7.72,0.072 13.025,0.135 -0.063,4.333 -0.095,6.497 -0.157,10.824 -5.041,-0.143 -7.576,-0.205 -12.67,-0.31 0.041,-3.359 0.063,-5.042 0.105,-8.404 -0.104,-10e-4 -0.2,-0.002 -0.303,-0.003 -0.736,-0.009 -1.437,-0.016 -2.102,-0.023 -2.781,-0.031 -5.025,-0.052 -7.42,-0.071 -0.778,-0.006 -1.57,-0.011 -2.404,-0.017 -0.761,-0.006 -1.561,-0.011 -2.406,-0.016 -0.678,-0.004 -1.385,-0.009 -2.139,-0.013 -0.011,3.672 -0.018,6.012 -0.028,8.951 -0.003,1.109 -0.006,2.301 -0.011,3.686 0.801,0.87 1.508,1.639 2.178,2.37 0.855,0.931 1.641,1.791 2.406,2.632 0.785,0.863 1.565,1.726 2.404,2.658 0.833,0.925 1.726,1.921 2.76,3.078 1.676,0.049 3.208,0.097 4.66,0.144 0.72,0.024 1.422,0.047 2.102,0.071 6.742,0.235 11.755,0.486 19.813,0.963 3.816,-4.155 5.717,-6.253 9.498,-10.533 0.022,-8.113 0.033,-12.171 0.054,-20.284 -3.767,-4.487 -5.658,-6.683 -9.457,-11.019 -7.742,0.1 -11.649,0.142 -19.522,0.204 0.047,-4.416 0.069,-6.624 0.115,-11.046 5.064,-0.104 7.583,-0.169 12.592,-0.312 -0.027,3.588 -0.04,5.384 -0.068,8.969 6.598,-0.097 9.875,-0.154 16.374,-0.285 z" />
        <path
   id="path28"
   style="fill:#007360;fill-rule:nonzero"
   d="m 244.004,80.707 c 0.011,-7.285 0.014,-10.927 0.025,-18.213 -8.765,1.199 -13.215,1.748 -22.23,2.727 -0.012,6.796 -0.02,10.195 -0.031,16.988 1.374,-0.083 2.059,-0.125 3.429,-0.208 -0.011,4.175 -0.017,6.268 -0.03,10.444 -4.448,0.139 -6.687,0.204 -11.192,0.329 0.009,-4.048 0.014,-6.069 0.027,-10.12 1.376,-0.077 2.064,-0.113 3.436,-0.193 0.013,-6.71 0.019,-10.067 0.033,-16.78 -4.607,0.477 -8.059,0.818 -11.56,1.131 -0.795,0.07 -1.592,0.141 -2.405,0.21 -0.78,0.067 -1.581,0.133 -2.404,0.2 -1.977,0.162 -4.109,0.33 -6.577,0.519 -0.011,6.339 -0.016,9.512 -0.027,15.853 1.415,-0.059 2.122,-0.088 3.534,-0.151 -0.033,13.029 -0.065,26.063 -0.096,39.091 -1.413,-0.058 -2.117,-0.091 -3.533,-0.148 -0.012,6.369 -0.018,9.554 -0.032,15.923 2.532,0.192 4.71,0.363 6.731,0.528 0.823,0.067 1.623,0.135 2.404,0.201 0.812,0.07 1.61,0.139 2.405,0.21 3.446,0.309 6.863,0.646 11.4,1.115 0.017,-6.738 0.026,-10.109 0.044,-16.852 -1.376,-0.077 -2.066,-0.112 -3.448,-0.19 0.008,-4.935 0.012,-7.408 0.022,-12.343 4.507,0.095 6.747,0.145 11.194,0.253 -0.011,5.095 -0.015,7.644 -0.026,12.737 -1.367,-0.083 -2.051,-0.125 -3.423,-0.205 -0.015,6.823 -0.019,10.236 -0.032,17.059 9.017,0.98 13.467,1.529 22.236,2.728 0.014,-7.316 0.02,-10.976 0.034,-18.294 -1.333,-0.098 -2.002,-0.148 -3.339,-0.246 0.032,-14.685 0.061,-29.369 0.09,-44.057 1.339,-0.098 2.008,-0.145 3.341,-0.246 z" />
        <path
   id="path30"
   style="fill:#007360;fill-rule:nonzero"
   d="m 59.391,138.159 c 0.375,-0.028 0.751,-0.055 1.126,-0.083 0.323,-0.023 0.647,-0.047 0.972,-0.069 3.544,-0.251 7.224,-0.48 11.982,-0.755 0.015,-6.179 0.021,-9.271 0.035,-15.45 -1.645,0.05 -2.468,0.08 -4.108,0.133 2.923,-12.551 5.907,-25.084 8.936,-37.607 1.547,0.045 2.32,0.068 3.869,0.109 0.014,-6.068 0.021,-9.098 0.036,-15.162 -8.411,-0.402 -12.696,-0.656 -20.75,-1.236 -0.202,-0.015 -0.395,-0.029 -0.602,-0.043 -0.011,6.295 -0.017,9.437 -0.029,15.735 0.23,0.009 0.435,0.017 0.631,0.025 0.844,0.034 1.441,0.058 2.439,0.094 -0.967,4.113 -1.715,7.306 -2.439,10.428 -0.457,1.967 -0.905,3.911 -1.394,6.033 -0.224,0.976 -0.458,1.993 -0.704,3.068 -0.252,1.099 -0.516,2.255 -0.801,3.5 -2.068,-9.28 -3.098,-13.965 -5.157,-23.459 1.025,0.045 1.538,0.068 2.567,0.112 0.01,-6.362 0.016,-9.541 0.027,-15.901 -1.877,-0.147 -3.56,-0.281 -5.131,-0.409 -0.829,-0.068 -1.628,-0.134 -2.403,-0.2 -0.822,-0.069 -1.618,-0.139 -2.405,-0.208 -4.113,-0.364 -7.925,-0.745 -13.275,-1.311 -0.012,6.743 -0.018,10.114 -0.031,16.857 1.044,0.06 1.565,0.089 2.611,0.148 -2.059,9.723 -3.084,14.65 -5.131,24.653 C 28.233,97.205 27.221,92.16 25.204,81.9 c 1.141,0.074 1.713,0.107 2.86,0.178 0.015,-6.835 0.025,-10.25 0.04,-17.085 C 19.959,64.085 15.936,63.586 7.997,62.5 7.988,69.78 7.982,73.423 7.971,80.707 c 1.448,0.11 2.175,0.16 3.628,0.264 2.686,14.497 5.426,28.98 8.232,43.454 -1.498,0.102 -2.246,0.151 -3.736,0.256 -0.013,7.128 -0.02,10.692 -0.033,17.821 10.275,-1.3 15.504,-1.879 26.105,-2.876 0.014,-6.609 0.02,-9.915 0.033,-16.524 -1.275,0.065 -1.912,0.1 -3.185,0.169 2.131,-8.72 3.198,-13.014 5.343,-21.496 0.653,2.481 1.211,4.589 1.73,6.544 0.826,3.105 1.553,5.816 2.405,8.957 0.448,1.653 0.93,3.425 1.48,5.443 -0.596,0.028 -1.033,0.05 -1.48,0.071 -0.379,0.019 -0.764,0.038 -1.266,0.063 -0.013,6.525 -0.018,9.787 -0.028,16.313 0.444,-0.039 0.867,-0.076 1.294,-0.113 0.827,-0.072 1.633,-0.143 2.403,-0.208 3.13,-0.269 5.826,-0.487 8.495,-0.686 z" />
        <path
   id="path32"
   style="fill:#231f20;fill-rule:nonzero"
   d="m 215.316,157.561 h 1.875 v 4.837 h 1.298 v -4.837 h 1.876 v -1.039 h -5.049 z" />
        <path
   id="path34"
   style="fill:#231f20;fill-rule:nonzero"
   d="m 223.896,160.448 -0.821,-3.926 h -2.214 v 5.876 h 1.212 v -4.908 h 0.016 l 1.133,4.908 h 1.272 l 1.158,-4.908 h 0.017 v 4.908 h 1.213 v -5.876 h -2.208 z" />
    </g>
</svg>
